<?xml version="1.0" encoding="UTF-8" standalone="no"?>
<!-- Created with Inkscape (http://www.inkscape.org/) -->

<svg
   xmlns:dc="http://purl.org/dc/elements/1.1/"
   xmlns:cc="http://creativecommons.org/ns#"
   xmlns:rdf="http://www.w3.org/1999/02/22-rdf-syntax-ns#"
   xmlns:svg="http://www.w3.org/2000/svg"
   xmlns="http://www.w3.org/2000/svg"
   xmlns:sodipodi="http://sodipodi.sourceforge.net/DTD/sodipodi-0.dtd"
   xmlns:inkscape="http://www.inkscape.org/namespaces/inkscape"
   version="1.1"
   id="svg2"
   width="300"
   height="300"
   viewBox="0 0 300 300"
   sodipodi:docname="Byte - copia.svg"
   inkscape:version="0.92.4 (5da689c313, 2019-01-14)">
  <metadata
     id="metadata8">
    <rdf:RDF>
      <cc:Work
         rdf:about="">
        <dc:format>image/svg+xml</dc:format>
        <dc:type
           rdf:resource="http://purl.org/dc/dcmitype/StillImage" />
        <dc:title />
      </cc:Work>
    </rdf:RDF>
  </metadata>
  <defs
     id="defs6" />
  <sodipodi:namedview
     pagecolor="#ffffff"
     bordercolor="#666666"
     borderopacity="1"
     objecttolerance="10"
     gridtolerance="10"
     guidetolerance="10"
     inkscape:pageopacity="0"
     inkscape:pageshadow="2"
     inkscape:window-width="2560"
     inkscape:window-height="1315"
     id="namedview4"
     showgrid="false"
     inkscape:zoom="1.73"
     inkscape:cx="-116.41618"
     inkscape:cy="138.33826"
     inkscape:window-x="-13"
     inkscape:window-y="-13"
     inkscape:window-maximized="1"
     inkscape:current-layer="layer1" />
  <g
     inkscape:groupmode="layer"
     id="layer3"
     inkscape:label="Layer 2"
     transform="translate(-19.525421,37.031067)">
    <circle
       style="fill:#131720;fill-opacity:0.94117647;stroke-width:2.03230476"
       id="path825"
       cx="169.52542"
       cy="112.96893"
       r="150" />
  </g>
  <g
     inkscape:groupmode="layer"
     id="layer1"
     inkscape:label="Layer 1"
     transform="translate(-19.525421,37.031067)">
    <path
       style="fill:#037cf4;fill-opacity:1;stroke-width:1.92153788"
       d="m 91.525421,168.35355 v -16.6154 h 5.99999 6.000009 v -5.53845 -5.53846 h 66 66 v 5.53846 5.53845 h 6 6 v 16.6154 16.61538 h -78 -77.999999 z m 35.999989,-5.53847 v -11.07693 h -12 -11.99999 v 11.07693 11.07693 h 11.99999 12 z m 36.00001,0 v -11.07693 h -12.00001 -11.99999 v 11.07693 11.07693 h 11.99999 12.00001 z m 36,0 v -11.07693 h -12.00001 -11.99999 v 11.07693 11.07693 h 11.99999 12.00001 z m 36,0 v -11.07693 h -11.99999 -12.00001 v 11.07693 11.07693 h 12.00001 11.99999 z m -118,-38.76924 v -5.53845 h -6.00001 -6 v -5.53846 -5.53847 h 6 6.00001 v -5.53845 -5.53846 h 5.99999 6 v 5.53846 5.53845 h 6 6 v 5.53847 5.53846 h -6 -6 v 5.53845 5.53847 h -6 -5.99999 z m 96,0 v -5.53845 h -6 -5.99999 v -5.53846 -5.53847 h 5.99999 6 v -5.53845 -5.53846 h 6 6 v 5.53846 5.53845 h 6.00001 6 v 5.53847 5.53846 h -6 -6.00001 v 5.53845 5.53847 h -6 -6 z m -48.00001,-22.15383 v -5.53846 h -5.99999 -6 v -5.538458 -5.538454 h -6 -6.00001 v -5.53847 -5.538457 h -6 -6 v -5.538469 -5.538456 h -6 -5.99999 v -5.538457 -5.53847 h -6.00001 -6 v -5.538457 -5.538469 h 6 6.00001 v 5.538469 5.538457 h 5.99999 6 v 5.53847 5.538457 h 6 6 v 5.538456 5.538469 h 6.00001 6 v 5.538457 5.53847 h 6 5.99999 v 5.538454 5.538458 h 6.00001 6 v -5.538458 -5.538454 h 6 6 v -5.53847 -5.538457 h 6 6.00001 v -5.538469 -5.538456 h 5.99999 6 v -5.538457 -5.53847 h 6 6 v -5.538457 -5.538469 h 6.00001 6 v 5.538469 5.538457 h -6 -6.00001 v 5.53847 5.538457 h -6 -6 v 5.538456 5.538469 h -6 -5.99999 v 5.538457 5.53847 h -6.00001 -6 v 5.538454 5.538458 h -6 -6 v 5.53846 5.53845 h -6 -6.00001 z"
       id="path833"
       inkscape:connector-curvature="0" />
  </g>
</svg>
