<?xml version="1.0" encoding="UTF-8" standalone="no"?>
<!-- Created with Inkscape (http://www.inkscape.org/) -->

<svg
   xmlns:dc="http://purl.org/dc/elements/1.1/"
   xmlns:cc="http://creativecommons.org/ns#"
   xmlns:rdf="http://www.w3.org/1999/02/22-rdf-syntax-ns#"
   xmlns:svg="http://www.w3.org/2000/svg"
   xmlns="http://www.w3.org/2000/svg"
   xmlns:sodipodi="http://sodipodi.sourceforge.net/DTD/sodipodi-0.dtd"
   xmlns:inkscape="http://www.inkscape.org/namespaces/inkscape"
   version="1.1"
   id="svg2"
   width="300"
   height="300"
   viewBox="0 0 300 300"
   sodipodi:docname="Byte.svg"
   inkscape:version="0.92.4 (5da689c313, 2019-01-14)">
  <metadata
     id="metadata8">
    <rdf:RDF>
      <cc:Work
         rdf:about="">
        <dc:format>image/svg+xml</dc:format>
        <dc:type
           rdf:resource="http://purl.org/dc/dcmitype/StillImage" />
        <dc:title></dc:title>
      </cc:Work>
    </rdf:RDF>
  </metadata>
  <defs
     id="defs6" />
  <sodipodi:namedview
     pagecolor="#ffffff"
     bordercolor="#666666"
     borderopacity="1"
     objecttolerance="10"
     gridtolerance="10"
     guidetolerance="10"
     inkscape:pageopacity="0"
     inkscape:pageshadow="2"
     inkscape:window-width="2560"
     inkscape:window-height="1315"
     id="namedview4"
     showgrid="false"
     inkscape:zoom="1.73"
     inkscape:cx="33.005786"
     inkscape:cy="138.33826"
     inkscape:window-x="-13"
     inkscape:window-y="-13"
     inkscape:window-maximized="1"
     inkscape:current-layer="layer1" />
  <g
     inkscape:groupmode="layer"
     id="layer3"
     inkscape:label="Layer 2"
     transform="translate(-19.525421,37.031067)">
    <circle
       style="fill:#131720;fill-opacity:0.94117647;stroke-width:2.03230476"
       id="path825"
       cx="169.52542"
       cy="112.96893"
       r="150" />
  </g>
  <g
     inkscape:groupmode="layer"
     id="layer1"
     inkscape:label="Layer 1"
     transform="translate(-19.525421,37.031067)">
    <path
       style="fill:#037cf4;fill-opacity:0.94117647;stroke-width:2"
       d="m 91.525426,160.96895 v -24 h 77.999994 78.00001 v 24 24.00001 H 169.52542 91.525426 Z m 36.000004,0 v -12 h -12 -12.00001 v 12 12.00001 h 12.00001 12 z m 36,0 v -12 h -12.00001 -12 v 12 12.00001 h 12 12.00001 z m 36,0 v -12 h -12 -12 v 12 12.00001 h 12 12 z m 36,0 v -12 h -12.00001 -11.99999 v 12 12.00001 h 11.99999 12.00001 z m -120,-42.00001 v -6 h -6.00001 -6 v -6 -6 h 6 6.00001 v -5.999999 -6 h 5.99999 6.00001 v 6 5.999999 h 5.99999 6 v 6 6 h -6 -5.99999 v 6 6 h -6.00001 -5.99999 z m 96,0 v -6 h -6.00001 -5.99999 v -6 -6 h 5.99999 6.00001 v -5.999999 -6 h 6 5.99999 v 6 5.999999 h 6.00001 6 v 6 6 h -6 -6.00001 v 6 6 h -5.99999 -6 z m -48,-35.999999 v -6 h -6.00001 -6 V 70.96894 64.968945 h -5.99999 -6.00001 v -6.000004 -6 h -18 -18 V 46.96894 40.968941 h 18 18 v 5.999999 6.000001 h 6.00001 5.99999 v 6 6.000004 h 6 6.00001 v 5.999995 6.000001 h 5.99999 6.00001 V 70.96894 64.968945 h 6 6 v -6.000004 -6 h 6 6 V 46.96894 40.968941 h 18 18 v 5.999999 6.000001 h -18 -18 v 6 6.000004 h -6 -6 v 5.999995 6.000001 h -6 -6 v 6 6 h -6.00001 -5.99999 z"
       id="path819"
       inkscape:connector-curvature="0" />
  </g>
</svg>
